<svg width="17" height="18" viewBox="0 0 17 18" fill="none" xmlns="http://www.w3.org/2000/svg">
<g id="Group 4">
<g id="001-coin">
<path id="XMLID_99_" fill-rule="evenodd" clip-rule="evenodd" d="M7.58936 17.3077C11.697 17.3077 15.0269 13.5882 15.0269 9C15.0269 4.41178 11.697 0.692307 7.58936 0.692307C3.48173 0.692307 0.151855 4.41178 0.151855 9C0.151855 13.5882 3.48173 17.3077 7.58936 17.3077" fill="#FFD12B"/>
<path id="XMLID_132_" fill-rule="evenodd" clip-rule="evenodd" d="M15.0268 9C15.0268 4.75655 12.1778 1.25842 8.50005 0.756394C8.79877 0.715746 9.10234 0.692307 9.41077 0.692307C13.5184 0.692307 16.8483 4.41178 16.8483 9C16.8483 13.5882 13.5184 17.3077 9.41077 17.3077C9.10234 17.3077 8.79877 17.2843 8.50005 17.2436C12.1778 16.7416 15.0268 13.2434 15.0268 9" fill="#FFB023"/>
<path id="XMLID_114_" fill-rule="evenodd" clip-rule="evenodd" d="M15.0274 9.2967H16.8483C16.8422 9.49638 16.8307 9.69428 16.8121 9.89011H14.9898C15.0086 9.69428 15.0211 9.49638 15.0274 9.2967" fill="#FF6D15"/>
<path id="XMLID_113_" fill-rule="evenodd" clip-rule="evenodd" d="M14.9579 7.81319H16.7781C16.8033 8.00871 16.8215 8.20691 16.834 8.40659H15.0129C15.0001 8.20691 14.9831 8.00871 14.9579 7.81319" fill="#FF6D15"/>
<path id="XMLID_112_" fill-rule="evenodd" clip-rule="evenodd" d="M14.8605 10.7802H16.6823C16.6428 10.9808 16.5973 11.1787 16.5453 11.3736H14.7242C14.7758 11.1787 14.8211 10.9808 14.8605 10.7802" fill="#FF6D15"/>
<path id="XMLID_111_" fill-rule="evenodd" clip-rule="evenodd" d="M14.4358 12.2637H16.2584C16.181 12.4661 16.0954 12.6634 16.0043 12.8571H14.1826C14.2737 12.6637 14.3584 12.4658 14.4358 12.2637" fill="#FF6D15"/>
<path id="XMLID_110_" fill-rule="evenodd" clip-rule="evenodd" d="M14.6407 6.32967H16.46C16.5192 6.5246 16.5745 6.72191 16.6206 6.92307H14.7971C14.7509 6.7225 14.6996 6.52401 14.6407 6.32967" fill="#FF6D15"/>
<path id="XMLID_109_" fill-rule="evenodd" clip-rule="evenodd" d="M14.036 4.84615H15.8574C15.9576 5.03931 16.052 5.23691 16.1382 5.43956H14.3155C14.2293 5.23721 14.1361 5.03931 14.036 4.84615" fill="#FF6D15"/>
<path id="XMLID_108_" fill-rule="evenodd" clip-rule="evenodd" d="M12.7971 3.06593H14.6206C14.7934 3.25464 14.9576 3.45254 15.113 3.65934H13.2901C13.1344 3.45254 12.9698 3.25464 12.7971 3.06593" fill="#FF6D15"/>
<path id="XMLID_107_" fill-rule="evenodd" clip-rule="evenodd" d="M10.9408 1.58241H12.7662C13.0764 1.75747 13.3739 1.95567 13.6575 2.17582H11.8333C11.5495 1.95567 11.2514 1.75747 10.9408 1.58241" fill="#FF6D15"/>
<path id="XMLID_106_" fill-rule="evenodd" clip-rule="evenodd" d="M13.5032 14.044H15.3256C15.1847 14.2496 15.036 14.4475 14.8787 14.6374H13.0552C13.2124 14.4475 13.3621 14.2496 13.5032 14.044" fill="#FF6D15"/>
<path id="XMLID_105_" fill-rule="evenodd" clip-rule="evenodd" d="M14.0154 15.5275C13.7716 15.742 13.5163 15.9411 13.2492 16.1209H11.4235C11.6918 15.9408 11.9499 15.7429 12.1946 15.5275H14.0154Z" fill="#FF6D15"/>
</g>
<g id="001-crown-2">
<path id="Path" fill-rule="evenodd" clip-rule="evenodd" d="M11.9236 6.40813C11.4672 6.40813 11.0972 6.79483 11.0972 7.27184C11.0974 7.36238 11.1114 7.45232 11.1386 7.5383L10.4684 7.98354C10.0271 8.27738 9.44529 8.18 9.1139 7.75682L8.45692 6.91688C8.56147 6.76977 8.61799 6.59141 8.61806 6.40815C8.61806 5.93115 8.24807 5.54445 7.79167 5.54445C7.33527 5.54445 6.96527 5.93115 6.96527 6.40815C6.96535 6.59141 7.02187 6.76977 7.12642 6.91688L6.46944 7.75682C6.1381 8.17975 5.55658 8.27712 5.11541 7.98354L4.44483 7.5383C4.47205 7.45232 4.48599 7.36238 4.48615 7.27184C4.48622 6.79483 4.1163 6.40807 3.65989 6.40799C3.20351 6.40791 2.83345 6.79455 2.83337 7.27155C2.8333 7.71933 3.16066 8.09291 3.58745 8.13208L4.07584 11.1939C4.0924 11.298 4.17855 11.3743 4.27954 11.3744H11.3039C11.4048 11.3743 11.491 11.298 11.5076 11.1939L11.9959 8.13208C12.4505 8.08947 12.786 7.66977 12.7452 7.19467C12.7071 6.74995 12.3509 6.40896 11.9236 6.40813Z" fill="#FFB023"/>
<path id="Oval" fill-rule="evenodd" clip-rule="evenodd" d="M7.79173 12.2381C9.82598 12.2381 11.4751 11.7547 11.4751 11.1585C11.4751 10.5622 9.82598 10.0789 7.79173 10.0789C5.75748 10.0789 4.1084 10.5622 4.1084 11.1585C4.1084 11.7547 5.75748 12.2381 7.79173 12.2381Z" fill="#FFB023"/>
</g>
</g>
</svg>
