<svg width="154" height="156" viewBox="0 0 154 156" fill="none" xmlns="http://www.w3.org/2000/svg">
<g id="Group 982">
<path id="Union" d="M66.367 143.876C98.7468 152.552 132.057 132.471 140.939 99.3252C149.82 66.1793 131.013 32.1335 98.6331 23.4573C66.2533 14.7811 32.943 34.8622 24.0615 68.0081C15.1801 101.154 33.9871 135.2 66.367 143.876Z" fill="#021024" fill-opacity="0.1"/>
<path id="Ellipse 732" d="M133.73 94.7096C125.344 126.006 93.9679 144.792 63.6493 136.668C33.3306 128.544 15.5506 96.5872 23.9366 65.2905C32.3225 33.9938 63.6987 15.2085 94.0174 23.3324C124.336 31.4562 142.116 63.4129 133.73 94.7096Z" fill="#B96F00"/>
<path id="Ellipse 732 (Stroke)" fill-rule="evenodd" clip-rule="evenodd" d="M137.272 95.6586C128.39 128.804 95.0801 148.886 62.7002 140.209C30.3204 131.533 11.5134 97.4873 20.3948 64.3415C29.2762 31.1956 62.5865 11.1145 94.9663 19.7906C127.346 28.4668 146.153 62.5127 137.272 95.6586ZM63.6492 136.668C93.9679 144.792 125.344 126.006 133.73 94.7096C142.116 63.4129 124.336 31.4562 94.0173 23.3324C63.6987 15.2085 32.3224 33.9938 23.9365 65.2905C15.5506 96.5871 33.3306 128.544 63.6492 136.668Z" fill="#975100"/>
<path id="Ellipse 728" d="M130.064 91.0429C121.678 122.34 90.3013 141.125 59.9827 133.001C29.664 124.877 11.884 92.9205 20.2699 61.6238C28.6558 30.3271 60.0321 11.5418 90.3508 19.6657C120.669 27.7896 138.449 59.7462 130.064 91.0429Z" fill="#F9B300"/>
<path id="Ellipse 728 (Stroke)" fill-rule="evenodd" clip-rule="evenodd" d="M133.605 91.9919C124.724 125.138 91.4135 145.219 59.0336 136.543C26.6538 127.867 7.84674 93.8207 16.7282 60.6748C25.6096 27.5289 58.9199 7.44782 91.2997 16.124C123.68 24.8001 142.487 58.846 133.605 91.9919ZM59.9826 133.001C90.3013 141.125 121.678 122.34 130.063 91.0429C138.449 59.7462 120.669 27.7896 90.3507 19.6657C60.0321 11.5418 28.6558 30.3271 20.2699 61.6238C11.884 92.9205 29.664 124.877 59.9826 133.001Z" fill="#975100"/>
<path id="Ellipse 733" d="M119.438 88.1959C112.625 113.624 87.2801 128.927 62.8296 122.376C38.379 115.824 24.0815 89.8994 30.895 64.4708C37.7086 39.0423 63.0531 23.7394 87.5037 30.2909C111.954 36.8424 126.252 62.7673 119.438 88.1959Z" fill="#FFCF23"/>
<path id="Ellipse 733 (Stroke)" fill-rule="evenodd" clip-rule="evenodd" d="M122.98 89.1449C115.678 116.397 88.4169 133.028 61.8806 125.918C35.3444 118.807 20.0511 90.7742 27.3534 63.5218C34.6556 36.2694 61.9165 19.6388 88.4527 26.7492C114.989 33.8595 130.282 61.8925 122.98 89.1449ZM62.8296 122.376C87.2802 128.927 112.625 113.624 119.438 88.1959C126.252 62.7673 111.954 36.8424 87.5037 30.2909C63.0532 23.7394 37.7086 39.0423 30.8951 64.4708C24.0815 89.8994 38.3791 115.824 62.8296 122.376Z" fill="#DF8D12"/>
<path id="Subtract" fill-rule="evenodd" clip-rule="evenodd" d="M109.201 43.6881C104.164 39.1991 98.0714 35.8067 91.1703 33.9576C66.7198 27.4061 41.3753 42.7089 34.5617 68.1375C30.1649 84.5464 34.559 101.162 44.7994 112.645C31.99 101.23 26.0046 82.7223 30.895 64.4708C37.7086 39.0423 63.0531 23.7394 87.5037 30.2909C96.1764 32.6147 103.572 37.3761 109.201 43.6881Z" fill="#FFDD65"/>
<g id="Group 947">
<path id="Ellipse 587" d="M107.403 96.742C107.999 98.0502 107.422 99.5945 106.114 100.191C104.806 100.788 103.262 100.211 102.665 98.9029C102.068 97.5947 102.645 96.0505 103.953 95.4538C105.262 94.8571 106.806 95.4338 107.403 96.742Z" fill="#F9B300"/>
<path id="Ellipse 588" d="M117.889 86.2358C118.485 87.544 117.909 89.0883 116.6 89.685C115.292 90.2817 113.748 89.7049 113.151 88.3967C112.555 87.0885 113.131 85.5443 114.44 84.9476C115.748 84.3509 117.292 84.9276 117.889 86.2358Z" fill="#F9B300"/>
<path id="Ellipse 597" d="M105.194 85.179C105.791 86.4872 105.214 88.0314 103.906 88.6281C102.598 89.2248 101.053 88.648 100.457 87.3398C99.8599 86.0316 100.437 84.4874 101.745 83.8907C103.053 83.294 104.597 83.8708 105.194 85.179Z" fill="#F9B300"/>
<path id="Ellipse 589" d="M110.519 89.0342C110.935 89.9452 110.533 91.0207 109.622 91.4362C108.711 91.8518 107.635 91.4501 107.22 90.539C106.804 89.628 107.206 88.5525 108.117 88.137C109.028 87.7214 110.103 88.1231 110.519 89.0342Z" fill="#F9B300"/>
<path id="Ellipse 590" d="M109.814 81.079C110.229 81.9901 109.828 83.0655 108.917 83.4811C108.006 83.8966 106.93 83.495 106.515 82.5839C106.099 81.6728 106.501 80.5974 107.412 80.1818C108.323 79.7663 109.398 80.168 109.814 81.079Z" fill="#F9B300"/>
<path id="Ellipse 591" d="M118.095 79.2943C118.511 80.2053 118.109 81.2808 117.198 81.6963C116.287 82.1119 115.212 81.7102 114.796 80.7991C114.38 79.8881 114.782 78.8126 115.693 78.3971C116.604 77.9815 117.68 78.3832 118.095 79.2943Z" fill="#F9B300"/>
<path id="Ellipse 592" d="M119.165 67.9736C119.581 68.8847 119.179 69.9601 118.268 70.3757C117.357 70.7912 116.282 70.3896 115.866 69.4785C115.45 68.5674 115.852 67.492 116.763 67.0764C117.674 66.6609 118.75 67.0625 119.165 67.9736Z" fill="#F9B300"/>
<path id="Ellipse 593" d="M113.554 75.3873C113.969 76.2984 113.567 77.3738 112.656 77.7894C111.745 78.2049 110.67 77.8032 110.254 76.8922C109.839 75.9811 110.24 74.9057 111.151 74.4901C112.063 74.0746 113.138 74.4762 113.554 75.3873Z" fill="#F9B300"/>
<path id="Ellipse 594" d="M115.036 93.873C115.452 94.784 115.05 95.8595 114.139 96.275C113.228 96.6906 112.152 96.2889 111.737 95.3778C111.321 94.4668 111.723 93.3913 112.634 92.9758C113.545 92.5602 114.621 92.9619 115.036 93.873Z" fill="#F9B300"/>
<path id="Ellipse 595" d="M106.789 104.573C107.173 105.415 106.802 106.409 105.96 106.793C105.118 107.177 104.124 106.805 103.74 105.963C103.356 105.121 103.727 104.127 104.569 103.743C105.411 103.359 106.405 103.731 106.789 104.573Z" fill="#F9B300"/>
<path id="Ellipse 596" d="M110.734 100.023C110.969 100.538 110.741 101.147 110.226 101.382C109.711 101.617 109.103 101.389 108.868 100.874C108.633 100.359 108.86 99.7509 109.375 99.5159C109.89 99.2809 110.499 99.5081 110.734 100.023Z" fill="#F9B300"/>
<path id="Ellipse 598" d="M103.487 91.6296C103.806 92.3304 103.497 93.1577 102.796 93.4773C102.096 93.797 101.268 93.488 100.949 92.7872C100.629 92.0864 100.938 91.2591 101.639 90.9395C102.34 90.6198 103.167 90.9288 103.487 91.6296Z" fill="#F9B300"/>
<path id="Ellipse 601" d="M114.092 69.6226C114.412 70.3235 114.103 71.1507 113.402 71.4704C112.701 71.79 111.874 71.4811 111.555 70.7802C111.235 70.0794 111.544 69.2522 112.245 68.9325C112.945 68.6128 113.773 68.9218 114.092 69.6226Z" fill="#F9B300"/>
<path id="Ellipse 602" d="M118.278 74.7658C118.597 75.4666 118.288 76.2939 117.588 76.6135C116.887 76.9332 116.06 76.6242 115.74 75.9234C115.42 75.2225 115.729 74.3953 116.43 74.0756C117.131 73.756 117.958 74.065 118.278 74.7658Z" fill="#F9B300"/>
<path id="Ellipse 599" d="M101.699 101.489C102.019 102.19 101.71 103.017 101.009 103.337C100.308 103.657 99.481 103.348 99.1613 102.647C98.8417 101.946 99.1506 101.119 99.8515 100.799C100.552 100.479 101.38 100.788 101.699 101.489Z" fill="#F9B300"/>
<path id="Ellipse 600" d="M100.91 109.617C101.229 110.317 100.92 111.145 100.219 111.464C99.5186 111.784 98.6913 111.475 98.3716 110.774C98.052 110.073 98.361 109.246 99.0618 108.926C99.7626 108.607 100.59 108.916 100.91 109.617Z" fill="#F9B300"/>
</g>
<g id="Group 952">
<path id="Vector 379 (Stroke)" fill-rule="evenodd" clip-rule="evenodd" d="M67.4624 47.0694C72.4919 45.2458 77.9887 45.567 82.5076 46.5337C86.8966 47.4727 90.6118 48.8379 93.8033 50.9807C97.0476 53.1588 99.2931 55.8336 101.145 58.6934C103.346 62.093 102.375 66.6335 98.9753 68.8348C95.5757 71.0362 91.0352 70.0648 88.8339 66.6652C87.6911 64.9003 86.7382 63.9029 85.6279 63.1574C84.465 62.3767 82.6694 61.5669 79.4393 60.8758C76.3389 60.2126 73.9108 60.3323 72.4618 60.8577C71.8233 61.0892 71.4682 61.3621 71.2414 61.6178C71.0231 61.8639 70.6848 62.3614 70.4609 63.4077C70.237 64.4541 70.3423 65.0465 70.4407 65.3604C70.5431 65.6865 70.7554 66.0807 71.2433 66.5532C72.3505 67.6255 74.5171 68.7282 77.6174 69.3915C82.1363 70.3582 87.2834 72.3142 91.1265 76.036C95.3477 80.1239 97.5138 85.9331 96.0478 92.7856C94.5818 99.6382 90.2285 104.053 84.7042 106.056C79.6747 107.879 74.1779 107.558 69.659 106.591C60.2371 104.576 53.8778 99.4936 50.7983 94.0634C48.8003 90.5404 50.0366 86.0648 53.5596 84.0668C57.0826 82.0689 61.5582 83.3052 63.5562 86.8282C64.3336 88.1991 66.9108 91.0049 72.7273 92.2492C75.8277 92.9125 78.2558 92.7928 79.7048 92.2674C80.3433 92.0359 80.6984 91.763 80.9252 91.5073C81.1435 91.2612 81.4818 90.7637 81.7057 89.7173C81.9295 88.671 81.8243 88.0786 81.7258 87.7647C81.6235 87.4386 81.4112 87.0443 80.9233 86.5719C79.8161 85.4996 77.6495 84.3969 74.5491 83.7336C70.0303 82.7668 64.8832 80.8109 61.0401 77.0891C56.8188 73.0012 54.6528 67.192 56.1188 60.3394C57.5848 53.4869 61.9381 49.0724 67.4624 47.0694Z" fill="#B96F00"/>
<path id="Vector 380 (Stroke)" fill-rule="evenodd" clip-rule="evenodd" d="M84.9527 35.1048C88.9131 35.9521 91.4369 39.8496 90.5896 43.81L88.2884 54.5666C87.4411 58.5271 83.5436 61.0508 79.5832 60.2036C75.6227 59.3563 73.099 55.4588 73.9462 51.4983L76.2475 40.7417C77.0948 36.7813 80.9922 34.2575 84.9527 35.1048Z" fill="#B96F00"/>
<path id="Vector 381 (Stroke)" fill-rule="evenodd" clip-rule="evenodd" d="M72.7275 92.2492C76.6879 93.0965 79.2117 96.994 78.3644 100.954L76.0631 111.711C75.2159 115.672 71.3184 118.195 67.3579 117.348C63.3975 116.501 60.8737 112.603 61.721 108.643L64.0222 97.8862C64.8695 93.9257 68.767 91.402 72.7275 92.2492Z" fill="#B96F00"/>
<path id="Vector 382 (Stroke)" fill-rule="evenodd" clip-rule="evenodd" d="M69.0246 51.3782C72.9352 49.9603 77.4731 50.1437 81.5487 51.0156C85.5756 51.8771 88.6908 53.0687 91.2485 54.7859C93.8259 56.5163 95.6674 58.667 97.2977 61.1846C98.1232 62.4594 97.7589 64.1621 96.484 64.9876C95.2092 65.8131 93.5065 65.4488 92.681 64.174C91.3167 62.067 89.9599 60.5454 88.1827 59.3522C86.3858 58.1458 83.9904 57.1625 80.398 56.3939C76.8544 55.6358 73.4673 55.6178 70.8994 56.5488C68.517 57.4127 66.6899 59.1256 65.9789 62.4489C65.268 65.7722 66.2343 68.0828 68.0547 69.8457C70.0169 71.7459 73.1149 73.1153 76.6586 73.8734C80.7342 74.7453 84.9498 76.4346 87.938 79.3284C91.0679 82.3595 92.6887 86.5784 91.5659 91.8268C90.443 97.0751 87.238 100.262 83.1419 101.747C79.2313 103.165 74.6934 102.981 70.6178 102.109C62.3226 100.335 57.1452 95.9641 54.785 91.8024C54.0358 90.4813 54.4994 88.8029 55.8206 88.0537C57.1417 87.3045 58.82 87.7681 59.5693 89.0892C61.0661 91.7286 64.8252 95.2457 71.7684 96.7312C75.3121 97.4893 78.6992 97.5073 81.2671 96.5762C83.6495 95.7124 85.4766 93.9995 86.1876 90.6762C86.8985 87.3529 85.9322 85.0423 84.1118 83.2794C82.1496 81.3791 79.0516 80.0098 75.5079 79.2517C71.4323 78.3798 67.2167 76.6905 64.2285 73.7967C61.0986 70.7655 59.4778 66.5466 60.6006 61.2983C61.7235 56.0499 64.9285 52.8634 69.0246 51.3782Z" fill="#DF8D12"/>
<path id="Vector 383 (Stroke)" fill-rule="evenodd" clip-rule="evenodd" d="M83.9938 39.5868C85.479 39.9045 86.4254 41.366 86.1077 42.8512L83.8065 53.6078C83.4887 55.093 82.0272 56.0394 80.542 55.7216C79.0568 55.4039 78.1104 53.9424 78.4282 52.4572L80.7294 41.7006C81.0471 40.2154 82.5087 39.269 83.9938 39.5868Z" fill="#DF8D12"/>
<path id="Vector 384 (Stroke)" fill-rule="evenodd" clip-rule="evenodd" d="M71.7685 96.7312C73.2537 97.0489 74.2001 98.5104 73.8823 99.9956L71.5811 110.752C71.2634 112.237 69.8018 113.184 68.3167 112.866C66.8315 112.548 65.8851 111.087 66.2028 109.602L68.504 98.845C68.8218 97.3598 70.2833 96.4134 71.7685 96.7312Z" fill="#DF8D12"/>
</g>
<path id="Ellipse 731 (Stroke)" fill-rule="evenodd" clip-rule="evenodd" d="M24.8211 58.8007C23.8726 58.4463 23.3911 57.3901 23.7455 56.4416C30.0736 39.507 44.2451 26.401 61.8456 21.5433C62.8216 21.2739 63.8312 21.8467 64.1006 22.8228C64.37 23.7988 63.7971 24.8084 62.8211 25.0778C46.3624 29.6204 33.0999 41.8832 27.1802 57.7251C26.8258 58.6735 25.7696 59.1551 24.8211 58.8007Z" fill="#FFD363"/>
<path id="Ellipse 729 (Stroke)" fill-rule="evenodd" clip-rule="evenodd" d="M120.846 104.117C121.702 104.657 121.957 105.79 121.417 106.646C117.128 113.435 111.442 119.252 104.762 123.693C103.918 124.254 102.78 124.025 102.22 123.182C101.659 122.339 101.888 121.201 102.731 120.64C108.982 116.484 114.304 111.04 118.317 104.688C118.857 103.832 119.99 103.576 120.846 104.117Z" fill="#FFDB5B"/>
<path id="Vector 605 (Stroke)" fill-rule="evenodd" clip-rule="evenodd" d="M45.0169 33.8588C45.0165 33.859 45.0173 33.8585 45.0169 33.8588L44 32.3333C45.0169 33.8588 45.0167 33.8589 45.0169 33.8588L45.0103 33.8632L44.9731 33.8885C44.9384 33.9123 44.8843 33.9497 44.8124 34.0004C44.6686 34.1017 44.4542 34.2557 44.1833 34.4589C43.641 34.8656 42.8755 35.4668 41.9989 36.2339C40.2354 37.7769 38.071 39.9486 36.3587 42.517C35.7971 43.3594 34.6588 43.5871 33.8163 43.0254C32.9739 42.4638 32.7462 41.3255 33.3079 40.4831C35.2623 37.5515 37.6812 35.1397 39.5844 33.4745C40.5411 32.6373 41.3797 31.9782 41.9833 31.5255C42.2853 31.299 42.5293 31.1236 42.7005 31.0029C42.7862 30.9426 42.8538 30.8958 42.9014 30.8632L42.9578 30.8248L42.9744 30.8137L42.9797 30.8101L42.9816 30.8089C42.9819 30.8086 42.983 30.8079 44 32.3333L42.9816 30.8089C43.8241 30.2472 44.9637 30.4739 45.5254 31.3164C46.0868 32.1585 45.8585 33.2969 45.0169 33.8588Z" fill="#FFE9AF"/>
<path id="Vector 606 (Stroke)" fill-rule="evenodd" clip-rule="evenodd" d="M52.3503 43.0255C52.3499 43.0257 52.3506 43.0252 52.3503 43.0255L51.3333 41.5C52.3503 43.0255 52.35 43.0256 52.3503 43.0255L52.3437 43.0299L52.3065 43.0552C52.2718 43.079 52.2176 43.1164 52.1457 43.167C52.0019 43.2684 51.7875 43.4224 51.5167 43.6256C50.9744 44.0323 50.2089 44.6335 49.3322 45.4006C47.5688 46.9436 45.4044 49.1152 43.6921 51.6836C43.1304 52.5261 41.9922 52.7538 41.1497 52.1921C40.3072 51.6305 40.0796 50.4922 40.6412 49.6497C42.5956 46.7182 45.0145 44.3064 46.9177 42.6411C47.8744 41.804 48.7131 41.1449 49.3167 40.6922C49.6187 40.4657 49.8626 40.2903 50.0339 40.1696C50.1196 40.1092 50.1872 40.0625 50.2348 40.0299L50.2912 39.9915L50.3078 39.9804L50.3131 39.9768L50.315 39.9755C50.3153 39.9753 50.3164 39.9746 51.3333 41.5L50.315 39.9755C51.1574 39.4139 52.2971 39.6406 52.8588 40.4831C53.4201 41.3252 53.1918 42.4635 52.3503 43.0255Z" fill="white"/>
</g>
</svg>
