<svg width="176" height="176" viewBox="0 0 176 176" fill="none" xmlns="http://www.w3.org/2000/svg">
<path d="M77.367 151.876C109.747 160.552 143.057 140.471 151.939 107.325C160.82 74.1793 142.013 40.1335 109.633 31.4573C77.2533 22.7811 43.943 42.8622 35.0615 76.0081C26.1801 109.154 44.9871 143.2 77.367 151.876Z" fill="#021024" fill-opacity="0.1"/>
<path d="M144.73 102.71C136.344 134.006 104.968 152.792 74.6493 144.668C44.3306 136.544 26.5506 104.587 34.9366 73.2905C43.3225 41.9938 74.6987 23.2085 105.017 31.3324C135.336 39.4562 153.116 71.4129 144.73 102.71Z" fill="#B96F00"/>
<path fill-rule="evenodd" clip-rule="evenodd" d="M148.272 103.659C139.39 136.804 106.08 156.886 73.7003 148.209C41.3204 139.533 22.5134 105.487 31.3948 72.3415C40.2763 39.1956 73.5866 19.1145 105.966 27.7906C138.346 36.4668 157.153 70.5127 148.272 103.659ZM74.6493 144.668C104.968 152.792 136.344 134.006 144.73 102.71C153.116 71.4129 135.336 39.4562 105.017 31.3324C74.6987 23.2085 43.3225 41.9938 34.9366 73.2905C26.5506 104.587 44.3306 136.544 74.6493 144.668Z" fill="#975100"/>
<path d="M141.063 99.0429C132.678 130.34 101.301 149.125 70.9827 141.001C40.664 132.877 22.884 100.92 31.2699 69.6238C39.6558 38.3271 71.0321 19.5418 101.351 27.6657C131.669 35.7896 149.449 67.7462 141.063 99.0429Z" fill="#F9B300"/>
<path fill-rule="evenodd" clip-rule="evenodd" d="M144.605 99.9919C135.724 133.138 102.414 153.219 70.0337 144.543C37.6538 135.867 18.8468 101.821 27.7282 68.6748C36.6096 35.5289 69.9199 15.4478 102.3 24.124C134.68 32.8001 153.487 66.846 144.605 99.9919ZM70.9827 141.001C101.301 149.125 132.678 130.34 141.064 99.0429C149.449 67.7462 131.669 35.7896 101.351 27.6657C71.0321 19.5418 39.6559 38.3271 31.2699 69.6238C22.884 100.92 40.664 132.877 70.9827 141.001Z" fill="#975100"/>
<path d="M130.438 96.1959C123.625 121.624 98.2802 136.927 73.8297 130.376C49.3792 123.824 35.0816 97.8994 41.8951 72.4708C48.7087 47.0423 74.0533 31.7394 98.5038 38.2909C122.954 44.8424 137.252 70.7673 130.438 96.1959Z" fill="#FFCF23"/>
<path fill-rule="evenodd" clip-rule="evenodd" d="M133.98 97.1449C126.678 124.397 99.4169 141.028 72.8806 133.918C46.3444 126.807 31.0511 98.7742 38.3534 71.5218C45.6556 44.2694 72.9165 27.6388 99.4527 34.7492C125.989 41.8595 141.282 69.8925 133.98 97.1449ZM73.8296 130.376C98.2802 136.927 123.625 121.624 130.438 96.1959C137.252 70.7673 122.954 44.8424 98.5037 38.2909C74.0532 31.7394 48.7086 47.0423 41.8951 72.4708C35.0815 97.8994 49.3791 123.824 73.8296 130.376Z" fill="#DF8D12"/>
<path fill-rule="evenodd" clip-rule="evenodd" d="M120.201 51.6881C115.164 47.1991 109.071 43.8067 102.17 41.9576C77.7199 35.4061 52.3753 50.7089 45.5618 76.1375C41.165 92.5464 45.5591 109.162 55.7994 120.645C42.9901 109.23 37.0046 90.7223 41.8951 72.4708C48.7087 47.0423 74.0532 31.7394 98.5037 38.2909C107.176 40.6147 114.572 45.3761 120.201 51.6881Z" fill="#FFDD65"/>
<path d="M118.403 104.742C118.999 106.05 118.422 107.594 117.114 108.191C115.806 108.788 114.262 108.211 113.665 106.903C113.068 105.595 113.645 104.05 114.953 103.454C116.262 102.857 117.806 103.434 118.403 104.742Z" fill="#F9B300"/>
<path d="M128.889 94.2358C129.485 95.544 128.909 97.0883 127.6 97.685C126.292 98.2817 124.748 97.7049 124.151 96.3967C123.555 95.0885 124.131 93.5443 125.44 92.9476C126.748 92.3509 128.292 92.9276 128.889 94.2358Z" fill="#F9B300"/>
<path d="M116.194 93.179C116.791 94.4872 116.214 96.0314 114.906 96.6281C113.598 97.2248 112.053 96.648 111.457 95.3398C110.86 94.0316 111.437 92.4874 112.745 91.8907C114.053 91.294 115.597 91.8708 116.194 93.179Z" fill="#F9B300"/>
<path d="M121.519 97.0342C121.935 97.9452 121.533 99.0207 120.622 99.4362C119.711 99.8518 118.635 99.4501 118.22 98.539C117.804 97.628 118.206 96.5525 119.117 96.137C120.028 95.7214 121.103 96.1231 121.519 97.0342Z" fill="#F9B300"/>
<path d="M120.814 89.079C121.229 89.9901 120.828 91.0655 119.917 91.4811C119.006 91.8966 117.93 91.495 117.515 90.5839C117.099 89.6728 117.501 88.5974 118.412 88.1818C119.323 87.7663 120.398 88.168 120.814 89.079Z" fill="#F9B300"/>
<path d="M129.095 87.2943C129.511 88.2053 129.109 89.2808 128.198 89.6963C127.287 90.1119 126.212 89.7102 125.796 88.7991C125.381 87.8881 125.782 86.8126 126.693 86.3971C127.604 85.9815 128.68 86.3832 129.095 87.2943Z" fill="#F9B300"/>
<path d="M130.165 75.9736C130.581 76.8847 130.179 77.9601 129.268 78.3757C128.357 78.7912 127.282 78.3896 126.866 77.4785C126.45 76.5674 126.852 75.492 127.763 75.0764C128.674 74.6609 129.75 75.0625 130.165 75.9736Z" fill="#F9B300"/>
<path d="M124.554 83.3873C124.969 84.2984 124.567 85.3738 123.656 85.7894C122.745 86.2049 121.67 85.8032 121.254 84.8922C120.839 83.9811 121.24 82.9057 122.151 82.4901C123.063 82.0746 124.138 82.4762 124.554 83.3873Z" fill="#F9B300"/>
<path d="M126.036 101.873C126.452 102.784 126.05 103.859 125.139 104.275C124.228 104.691 123.152 104.289 122.737 103.378C122.321 102.467 122.723 101.391 123.634 100.976C124.545 100.56 125.621 100.962 126.036 101.873Z" fill="#F9B300"/>
<path d="M117.789 112.573C118.173 113.415 117.802 114.409 116.96 114.793C116.118 115.177 115.124 114.805 114.74 113.963C114.356 113.121 114.727 112.127 115.569 111.743C116.411 111.359 117.405 111.731 117.789 112.573Z" fill="#F9B300"/>
<path d="M121.734 108.023C121.969 108.538 121.741 109.147 121.226 109.382C120.711 109.617 120.103 109.389 119.868 108.874C119.633 108.359 119.86 107.751 120.375 107.516C120.89 107.281 121.499 107.508 121.734 108.023Z" fill="#F9B300"/>
<path d="M114.487 99.6296C114.806 100.33 114.497 101.158 113.796 101.477C113.096 101.797 112.268 101.488 111.949 100.787C111.629 100.086 111.938 99.2591 112.639 98.9395C113.34 98.6198 114.167 98.9288 114.487 99.6296Z" fill="#F9B300"/>
<path d="M125.092 77.6226C125.412 78.3235 125.103 79.1507 124.402 79.4704C123.701 79.79 122.874 79.4811 122.555 78.7802C122.235 78.0794 122.544 77.2522 123.245 76.9325C123.945 76.6128 124.773 76.9218 125.092 77.6226Z" fill="#F9B300"/>
<path d="M129.278 82.7658C129.597 83.4666 129.288 84.2939 128.588 84.6135C127.887 84.9332 127.06 84.6242 126.74 83.9234C126.42 83.2225 126.729 82.3953 127.43 82.0756C128.131 81.756 128.958 82.065 129.278 82.7658Z" fill="#F9B300"/>
<path d="M112.699 109.489C113.019 110.19 112.71 111.017 112.009 111.337C111.308 111.657 110.481 111.348 110.161 110.647C109.842 109.946 110.151 109.119 110.851 108.799C111.552 108.479 112.38 108.788 112.699 109.489Z" fill="#F9B300"/>
<path d="M111.91 117.617C112.229 118.317 111.92 119.145 111.219 119.464C110.519 119.784 109.691 119.475 109.372 118.774C109.052 118.073 109.361 117.246 110.062 116.926C110.763 116.607 111.59 116.916 111.91 117.617Z" fill="#F9B300"/>
<path fill-rule="evenodd" clip-rule="evenodd" d="M78.4624 55.0694C83.4919 53.2458 88.9887 53.567 93.5076 54.5337C97.8966 55.4727 101.612 56.8379 104.803 58.9807C108.048 61.1588 110.293 63.8336 112.145 66.6934C114.346 70.093 113.375 74.6335 109.975 76.8348C106.576 79.0362 102.035 78.0648 99.8339 74.6652C98.6911 72.9003 97.7382 71.9029 96.6279 71.1574C95.465 70.3767 93.6694 69.5669 90.4393 68.8758C87.3389 68.2126 84.9108 68.3323 83.4618 68.8577C82.8233 69.0892 82.4682 69.3621 82.2414 69.6178C82.0231 69.8639 81.6848 70.3614 81.4609 71.4077C81.237 72.4541 81.3423 73.0465 81.4407 73.3604C81.5431 73.6865 81.7554 74.0807 82.2433 74.5532C83.3505 75.6255 85.5171 76.7282 88.6174 77.3915C93.1363 78.3582 98.2834 80.3142 102.127 84.036C106.348 88.1239 108.514 93.9331 107.048 100.786C105.582 107.638 101.229 112.053 95.7042 114.056C90.6747 115.879 85.1779 115.558 80.659 114.591C71.2371 112.576 64.8778 107.494 61.7983 102.063C59.8003 98.5404 61.0366 94.0648 64.5596 92.0668C68.0826 90.0689 72.5582 91.3052 74.5562 94.8282C75.3336 96.1991 77.9108 99.0049 83.7273 100.249C86.8277 100.913 89.2558 100.793 90.7048 100.267C91.3433 100.036 91.6984 99.763 91.9252 99.5073C92.1435 99.2612 92.4818 98.7637 92.7057 97.7173C92.9295 96.671 92.8243 96.0786 92.7258 95.7647C92.6235 95.4386 92.4112 95.0443 91.9233 94.5719C90.8161 93.4996 88.6495 92.3969 85.5491 91.7336C81.0303 90.7668 75.8832 88.8109 72.0401 85.0891C67.8188 81.0012 65.6528 75.192 67.1188 68.3394C68.5848 61.4869 72.9381 57.0724 78.4624 55.0694Z" fill="#B96F00"/>
<path fill-rule="evenodd" clip-rule="evenodd" d="M95.9527 43.1048C99.9132 43.9521 102.437 47.8496 101.59 51.81L99.2884 62.5666C98.4411 66.5271 94.5437 69.0508 90.5832 68.2036C86.6227 67.3563 84.099 63.4588 84.9463 59.4983L87.2475 48.7417C88.0948 44.7813 91.9923 42.2575 95.9527 43.1048Z" fill="#B96F00"/>
<path fill-rule="evenodd" clip-rule="evenodd" d="M83.7275 100.249C87.6879 101.097 90.2117 104.994 89.3644 108.954L87.0631 119.711C86.2159 123.672 82.3184 126.195 78.3579 125.348C74.3975 124.501 71.8737 120.603 72.721 116.643L75.0222 105.886C75.8695 101.926 79.767 99.402 83.7275 100.249Z" fill="#B96F00"/>
<path fill-rule="evenodd" clip-rule="evenodd" d="M80.0247 59.3782C83.9353 57.9603 88.4731 58.1437 92.5487 59.0156C96.5756 59.8771 99.6909 61.0687 102.249 62.7859C104.826 64.5163 106.667 66.667 108.298 69.1846C109.123 70.4594 108.759 72.1621 107.484 72.9876C106.209 73.8131 104.507 73.4488 103.681 72.174C102.317 70.067 100.96 68.5454 99.1828 67.3522C97.3859 66.1458 94.9904 65.1625 91.3981 64.3939C87.8545 63.6358 84.4674 63.6178 81.8995 64.5488C79.5171 65.4127 77.69 67.1256 76.979 70.4489C76.268 73.7722 77.2344 76.0828 79.0548 77.8457C81.017 79.7459 84.115 81.1153 87.6586 81.8734C91.7342 82.7453 95.9499 84.4346 98.938 87.3284C102.068 90.3595 103.689 94.5784 102.566 99.8268C101.443 105.075 98.2381 108.262 94.1419 109.747C90.2313 111.165 85.6935 110.981 81.6179 110.109C73.3226 108.335 68.1453 103.964 65.7851 99.8024C65.0359 98.4812 65.4995 96.8029 66.8206 96.0537C68.1418 95.3045 69.8201 95.7681 70.5693 97.0892C72.0662 99.7286 75.8253 103.246 82.7685 104.731C86.3122 105.489 89.6992 105.507 92.2671 104.576C94.6495 103.712 96.4766 101.999 97.1876 98.6762C97.8986 95.3529 96.9322 93.0423 95.1118 91.2794C93.1496 89.3791 90.0517 88.0098 86.508 87.2517C82.4324 86.3798 78.2168 84.6905 75.2286 81.7967C72.0986 78.7655 70.4779 74.5466 71.6007 69.2983C72.7235 64.0499 75.9285 60.8634 80.0247 59.3782Z" fill="#DF8D12"/>
<path fill-rule="evenodd" clip-rule="evenodd" d="M94.9938 47.5868C96.479 47.9045 97.4254 49.366 97.1077 50.8512L94.8065 61.6078C94.4887 63.093 93.0272 64.0394 91.542 63.7216C90.0568 63.4039 89.1104 61.9424 89.4282 60.4572L91.7294 49.7006C92.0471 48.2154 93.5087 47.269 94.9938 47.5868Z" fill="#DF8D12"/>
<path fill-rule="evenodd" clip-rule="evenodd" d="M82.7686 104.731C84.2537 105.049 85.2001 106.51 84.8824 107.996L82.5812 118.752C82.2634 120.237 80.8019 121.184 79.3167 120.866C77.8315 120.548 76.8851 119.087 77.2029 117.602L79.5041 106.845C79.8218 105.36 81.2834 104.413 82.7686 104.731Z" fill="#DF8D12"/>
<path fill-rule="evenodd" clip-rule="evenodd" d="M35.8212 66.8007C34.8727 66.4463 34.3911 65.3901 34.7455 64.4416C41.0737 47.507 55.2452 34.401 72.8456 29.5433C73.8216 29.2739 74.8313 29.8467 75.1006 30.8228C75.37 31.7988 74.7972 32.8084 73.8211 33.0778C57.3625 37.6204 44.1 49.8832 38.1802 65.7251C37.8258 66.6735 36.7696 67.1551 35.8212 66.8007Z" fill="#FFD363"/>
<path fill-rule="evenodd" clip-rule="evenodd" d="M131.846 112.117C132.702 112.657 132.957 113.79 132.417 114.646C128.128 121.435 122.442 127.252 115.762 131.693C114.918 132.254 113.78 132.025 113.22 131.182C112.659 130.339 112.888 129.201 113.731 128.64C119.982 124.484 125.304 119.04 129.317 112.688C129.857 111.832 130.99 111.576 131.846 112.117Z" fill="#FFDB5B"/>
<path fill-rule="evenodd" clip-rule="evenodd" d="M56.017 41.8588C56.0167 41.859 56.0174 41.8585 56.017 41.8588L55.0001 40.3333C56.017 41.8588 56.0168 41.8589 56.017 41.8588L56.0104 41.8632L55.9733 41.8885C55.9386 41.9123 55.8844 41.9497 55.8125 42.0004C55.6687 42.1017 55.4543 42.2557 55.1834 42.4589C54.6411 42.8656 53.8756 43.4668 52.999 44.2339C51.2355 45.7769 49.0711 47.9486 47.3588 50.517C46.7972 51.3594 45.6589 51.5871 44.8165 51.0254C43.974 50.4638 43.7463 49.3255 44.308 48.4831C46.2624 45.5515 48.6813 43.1397 50.5845 41.4745C51.5412 40.6373 52.3799 39.9782 52.9834 39.5255C53.2855 39.299 53.5294 39.1236 53.7007 39.0029C53.7863 38.9426 53.8539 38.8958 53.9016 38.8632L53.9579 38.8248L53.9745 38.8137L53.9798 38.8101L53.9817 38.8089C53.9821 38.8086 53.9831 38.8079 55.0001 40.3333L53.9817 38.8089C54.8242 38.2472 55.9639 38.4739 56.5255 39.3164C57.0869 40.1585 56.8586 41.2969 56.017 41.8588Z" fill="#FFE9AF"/>
<path fill-rule="evenodd" clip-rule="evenodd" d="M63.3503 51.0255C63.35 51.0257 63.3507 51.0252 63.3503 51.0255L62.3334 49.5C63.3503 51.0255 63.3501 51.0256 63.3503 51.0255L63.3438 51.0299L63.3066 51.0552C63.2719 51.079 63.2177 51.1164 63.1458 51.167C63.002 51.2684 62.7876 51.4224 62.5167 51.6256C61.9744 52.0323 61.2089 52.6335 60.3323 53.4006C58.5688 54.9436 56.4044 57.1152 54.6921 59.6836C54.1305 60.5261 52.9922 60.7538 52.1498 60.1921C51.3073 59.6305 51.0796 58.4922 51.6413 57.6497C53.5957 54.7182 56.0146 52.3064 57.9178 50.6411C58.8745 49.804 59.7132 49.1449 60.3167 48.6922C60.6188 48.4657 60.8627 48.2903 61.034 48.1696C61.1196 48.1092 61.1872 48.0625 61.2349 48.0299L61.2912 47.9915L61.3078 47.9804L61.3131 47.9768L61.315 47.9755C61.3154 47.9753 61.3164 47.9746 62.3334 49.5L61.315 47.9755C62.1575 47.4139 63.2972 47.6406 63.8588 48.4831C64.4202 49.3252 64.1919 50.4635 63.3503 51.0255Z" fill="white"/>
</svg>
