<svg width="20" height="18" viewBox="0 0 20 18" fill="none" xmlns="http://www.w3.org/2000/svg">
<path id="Vector" fill-rule="evenodd" clip-rule="evenodd" d="M1.30435 2.63415H18.6957C19.0416 2.63415 19.3734 2.49538 19.618 2.24838C19.8626 2.00139 20 1.66638 20 1.31707C20 0.967764 19.8626 0.632761 19.618 0.385762C19.3734 0.138763 19.0416 0 18.6957 0H1.30435C0.958413 0 0.626647 0.138763 0.382035 0.385762C0.137422 0.632761 0 0.967764 0 1.31707C0 1.66638 0.137422 2.00139 0.382035 2.24838C0.626647 2.49538 0.958413 2.63415 1.30435 2.63415M18.6957 7.68293H1.30435C0.958413 7.68293 0.626647 7.82169 0.382035 8.06869C0.137422 8.31569 0 8.65069 0 9C0 9.34931 0.137422 9.68431 0.382035 9.93131C0.626647 10.1783 0.958413 10.3171 1.30435 10.3171H18.6957C19.0416 10.3171 19.3734 10.1783 19.618 9.93131C19.8626 9.68431 20 9.34931 20 9C20 8.65069 19.8626 8.31569 19.618 8.06869C19.3734 7.82169 19.0416 7.68293 18.6957 7.68293ZM18.6957 15.3659H1.30435C1.13306 15.3659 0.963446 15.3999 0.805195 15.4661C0.646945 15.5323 0.503155 15.6293 0.382035 15.7516C0.260915 15.8739 0.164837 16.0191 0.0992876 16.1789C0.033738 16.3387 0 16.51 0 16.6829C0 16.8559 0.033738 17.0272 0.0992876 17.1869C0.164837 17.3467 0.260915 17.4919 0.382035 17.6142C0.503155 17.7365 0.646945 17.8336 0.805195 17.8997C0.963446 17.9659 1.13306 18 1.30435 18H18.6957C18.8669 18 19.0366 17.9659 19.1948 17.8997C19.3531 17.8336 19.4968 17.7365 19.618 17.6142C19.7391 17.4919 19.8352 17.3467 19.9007 17.1869C19.9663 17.0272 20 16.8559 20 16.6829C20 16.51 19.9663 16.3387 19.9007 16.1789C19.8352 16.0191 19.7391 15.8739 19.618 15.7516C19.4968 15.6293 19.3531 15.5323 19.1948 15.4661C19.0366 15.3999 18.8669 15.3659 18.6957 15.3659" fill="black"/>
</svg>
